<?xml version='1.0' encoding='ASCII' standalone='yes'?>
<svg xmlns="http://www.w3.org/2000/svg" xmlns:xlink="http://www.w3.org/1999/xlink" version="1.1">
  <svg version="1.0" width="600" height="600" viewBox="0 0 6 6">
<path d="M0,0h6v6h-6z" fill="#ff0"/>
<path d="M1,0v6h1v-6h1v6h1v-6h1v6h1v-6z" fill="#00f"/>
</svg>
  <g transform="translate(620, 0) scale(1 1) ">
    <svg width="600" height="600" viewBox="0 0 4 4">
<path d="M0,0h4v4H0z" fill="#fff"/>
<path d="M0,3v-3h1v4h1v-4h1v4h1v-3h-4v1h4v1z" fill="#00f"/>
</svg>
  </g>
  <g transform="translate(1240, 150) scale(1 1) ">
    <svg width="540" height="300" version="1.0">
<path d="M1.25,1.25l537.5,75v147.5l-537.5,75z" fill="#fff" stroke="#000" stroke-width="2.5"/>
<circle cx="150" cy="150" r="75.3" fill="#f00"/>
</svg>
  </g>
</svg>
