<?xml version='1.0' encoding='ASCII' standalone='yes'?>
<svg xmlns="http://www.w3.org/2000/svg" xmlns:xlink="http://www.w3.org/1999/xlink" version="1.1">
  <svg version="1.0" width="600" height="600">
<rect x="0" y="0" width="600" height="600" fill="blue"/>
<rect x="0" y="200" width="600" height="200" fill="white"/>
</svg>
  <g transform="translate(620, 0) scale(1 1) ">
    <svg version="1.0" width="600" height="600">
<path d="M1.25,1.25h597.5l-148.75,298.75l148.75,298.75h-597.5z" fill="#fff"/>
<path d="M300,1.25h297.5l-148.75,298.75l148.75,298.75h-297.5z" fill="#00f"/>
<path d="M1.25,1.25h597.5l-148.75,298.75l148.75,298.75h-597.5z" fill="none" stroke="#000" stroke-width="2.5"/>
</svg>
  </g>
  <g transform="translate(1240, 150) scale(1 1) ">
    <svg version="1.0" width="540" height="300">
<path d="M1.25,1.25l537.5,75v147.5l-537.5,75z" fill="#f00"/>
<path d="M1.25,112.5h111.5v-96l75,10.4v85.6h351v75h-351v85.6l-75,10.4v-96h-111.5" fill="#fff"/>
<path d="M1.25,1.25l537.5,75v147.5l-537.5,75z" fill="none" stroke="#000" stroke-width="2.5"/>
</svg>
  </g>
</svg>
