<?xml version='1.0' encoding='ASCII' standalone='yes'?>
<svg xmlns="http://www.w3.org/2000/svg" xmlns:xlink="http://www.w3.org/1999/xlink" version="1.1">
  <svg width="600" height="600">
<rect fill="#00f" width="600" height="600"/>
<g stroke="#fff" stroke-width="105px">
<path d="M 0,0 L 600,600 z"/>
<path d="M 0,600 L 600,0 z"/>
<rect fill="none" width="600" height="600" stroke="#000" stroke-width="2px"/>
</g>
</svg>
  <g transform="translate(620, 0) scale(1 1) ">
    <svg version="1.0" width="600" height="600">
<path d="M1.25,1.25h597.5l-148.75,298.75l148.75,298.75h-597.5z" fill="#fff"/>
<path d="M300,1.25h297.5l-148.75,298.75l148.75,298.75h-297.5z" fill="#00f"/>
<path d="M1.25,1.25h597.5l-148.75,298.75l148.75,298.75h-597.5z" fill="none" stroke="#000" stroke-width="2.5"/>
</svg>
  </g>
  <g transform="translate(1240, 0) scale(1 1) ">
    <svg height="600" width="600" viewBox="0 0 5 5">
<path d="M0,0h5v5h-5z" fill="#00f"/>
<path d="M0,1h5v3h-5z" fill="#fff"/>
<path d="M0,2h5v1h-5z" fill="#f00"/>
</svg>
  </g>
</svg>
